<svg width="15" height="20" viewBox="0 0 15 20" fill="none" xmlns="http://www.w3.org/2000/svg">
<path d="M2.5 18.125C2.10938 18.099 1.90104 17.8906 1.875 17.5V2.5C1.90104 2.10938 2.10938 1.90104 2.5 1.875H8.75V5C8.75 5.36458 8.86719 5.66406 9.10156 5.89844C9.33594 6.13281 9.63542 6.25 10 6.25H13.125V17.5C13.099 17.8906 12.8906 18.099 12.5 18.125H2.5ZM2.5 0C1.79688 0.0260417 1.21094 0.273438 0.742188 0.742188C0.273438 1.21094 0.0260417 1.79688 0 2.5V17.5C0.0260417 18.2031 0.273438 18.7891 0.742188 19.2578C1.21094 19.7266 1.79688 19.974 2.5 20H12.5C13.2031 19.974 13.7891 19.7266 14.2578 19.2578C14.7266 18.7891 14.974 18.2031 15 17.5V6.05469C15 5.35156 14.7526 4.7526 14.2578 4.25781L10.7422 0.742188C10.2474 0.247396 9.66146 0 8.98438 0H2.5ZM6.28906 11.2891C6.65365 10.8464 6.65365 10.4036 6.28906 9.96094C5.84635 9.59635 5.40365 9.59635 4.96094 9.96094L3.08594 11.8359C2.72135 12.2786 2.72135 12.7214 3.08594 13.1641L4.96094 15.0391C5.40365 15.4036 5.84635 15.4036 6.28906 15.0391C6.65365 14.5964 6.65365 14.1536 6.28906 13.7109L5.07812 12.5L6.28906 11.2891ZM10.0391 9.96094C9.59635 9.59635 9.15365 9.59635 8.71094 9.96094C8.34635 10.4036 8.34635 10.8464 8.71094 11.2891L9.92188 12.5L8.71094 13.7109C8.34635 14.1536 8.34635 14.5964 8.71094 15.0391C9.15365 15.4036 9.59635 15.4036 10.0391 15.0391L11.9141 13.1641C12.2786 12.7214 12.2786 12.2786 11.9141 11.8359L10.0391 9.96094Z" fill="#6B6B76"/>
</svg>
