<svg width="18" height="20" viewBox="0 0 18 20" fill="none" xmlns="http://www.w3.org/2000/svg">
<path d="M3.125 4.0625C3.69792 4.01042 4.01042 3.69792 4.0625 3.125C4.01042 2.55208 3.69792 2.23958 3.125 2.1875C2.55208 2.23958 2.23958 2.55208 2.1875 3.125C2.23958 3.69792 2.55208 4.01042 3.125 4.0625ZM6.25 3.125C6.25 3.77604 6.08073 4.34896 5.74219 4.84375C5.40365 5.36458 4.94792 5.74219 4.375 5.97656V9.41406C5.13021 8.97135 5.96354 8.75 6.875 8.75H10.625C11.3281 8.72396 11.9141 8.47656 12.3828 8.00781C12.8516 7.53906 13.099 6.95312 13.125 6.25V5.97656C12.5521 5.74219 12.0964 5.36458 11.7578 4.84375C11.4193 4.34896 11.25 3.77604 11.25 3.125C11.276 2.23958 11.5755 1.4974 12.1484 0.898438C12.7474 0.325521 13.4896 0.0260417 14.375 0C15.2604 0.0260417 16.0026 0.325521 16.6016 0.898438C17.1745 1.4974 17.474 2.23958 17.5 3.125C17.5 3.77604 17.3307 4.34896 16.9922 4.84375C16.6536 5.36458 16.1979 5.74219 15.625 5.97656V6.25C15.599 7.65625 15.1172 8.84115 14.1797 9.80469C13.2161 10.7422 12.0312 11.224 10.625 11.25H6.875C6.17188 11.276 5.58594 11.5234 5.11719 11.9922C4.64844 12.4609 4.40104 13.0469 4.375 13.75V14.0234C4.94792 14.2578 5.40365 14.6354 5.74219 15.1562C6.08073 15.651 6.25 16.224 6.25 16.875C6.22396 17.7604 5.92448 18.5026 5.35156 19.1016C4.7526 19.6745 4.01042 19.974 3.125 20C2.23958 19.974 1.4974 19.6745 0.898438 19.1016C0.325521 18.5026 0.0260417 17.7604 0 16.875C0 16.224 0.169271 15.651 0.507812 15.1562C0.846354 14.6354 1.30208 14.2578 1.875 14.0234V13.75V5.97656C1.30208 5.74219 0.846354 5.36458 0.507812 4.84375C0.169271 4.34896 0 3.77604 0 3.125C0.0260417 2.23958 0.325521 1.4974 0.898438 0.898438C1.4974 0.325521 2.23958 0.0260417 3.125 0C4.01042 0.0260417 4.7526 0.325521 5.35156 0.898438C5.92448 1.4974 6.22396 2.23958 6.25 3.125ZM15.3125 3.125C15.2604 2.55208 14.9479 2.23958 14.375 2.1875C13.8021 2.23958 13.4896 2.55208 13.4375 3.125C13.4896 3.69792 13.8021 4.01042 14.375 4.0625C14.9479 4.01042 15.2604 3.69792 15.3125 3.125ZM3.125 17.8125C3.69792 17.7604 4.01042 17.4479 4.0625 16.875C4.01042 16.3021 3.69792 15.9896 3.125 15.9375C2.55208 15.9896 2.23958 16.3021 2.1875 16.875C2.23958 17.4479 2.55208 17.7604 3.125 17.8125Z" fill="#6B6B76"/>
</svg>
