<svg width="20" height="20" viewBox="0 0 20 20" fill="none" xmlns="http://www.w3.org/2000/svg">
<path d="M9.17969 0.15625C9.72656 -0.0520833 10.2865 -0.0520833 10.8594 0.15625L18.3594 2.8125C18.8542 3.02083 19.2448 3.33333 19.5312 3.75C19.8438 4.16667 20 4.64844 20 5.19531V14.6484C20 15.1953 19.8438 15.6771 19.5312 16.0938C19.2448 16.5104 18.8542 16.8229 18.3594 17.0312L10.8594 19.6875C10.2865 19.8958 9.71354 19.8958 9.14062 19.6875L1.64062 17.0312C1.14583 16.849 0.755208 16.5365 0.46875 16.0938C0.15625 15.6771 0 15.1953 0 14.6484V5.19531C0 4.64844 0.15625 4.16667 0.46875 3.75C0.755208 3.33333 1.15885 3.02083 1.67969 2.8125L9.17969 0.15625ZM10 2.5L3.20312 4.92188L10 7.34375L16.7969 4.92188L10 2.5ZM11.25 16.9141L17.5 14.6875V7.34375L11.25 9.57031V16.9141Z" fill="#6B6B76"/>
</svg>
