<svg width="20" height="20" viewBox="0 0 20 20" fill="none" xmlns="http://www.w3.org/2000/svg">
<path d="M16.25 8.125C16.224 9.94792 15.7031 11.5495 14.6875 12.9297L19.6484 17.8516C19.8828 18.112 20 18.4115 20 18.75C20 19.0885 19.8828 19.388 19.6484 19.6484C19.388 19.8828 19.0885 20 18.75 20C18.4115 20 18.112 19.8828 17.8516 19.6484L12.9297 14.6875C11.5495 15.7031 9.94792 16.224 8.125 16.25C5.83333 16.1979 3.91927 15.4036 2.38281 13.8672C0.846354 12.3307 0.0520833 10.4167 0 8.125C0.0520833 5.83333 0.846354 3.91927 2.38281 2.38281C3.91927 0.846354 5.83333 0.0520833 8.125 0C10.4167 0.0520833 12.3307 0.846354 13.8672 2.38281C15.4036 3.91927 16.1979 5.83333 16.25 8.125ZM8.125 13.75C9.14062 13.75 10.0781 13.5026 10.9375 13.0078C11.7969 12.513 12.487 11.8229 13.0078 10.9375C13.5026 10.0521 13.75 9.11458 13.75 8.125C13.75 7.13542 13.5026 6.19792 13.0078 5.3125C12.487 4.42708 11.7969 3.73698 10.9375 3.24219C10.0781 2.7474 9.14062 2.5 8.125 2.5C7.10938 2.5 6.17188 2.7474 5.3125 3.24219C4.45312 3.73698 3.76302 4.42708 3.24219 5.3125C2.7474 6.19792 2.5 7.13542 2.5 8.125C2.5 9.11458 2.7474 10.0521 3.24219 10.9375C3.76302 11.8229 4.45312 12.513 5.3125 13.0078C6.17188 13.5026 7.10938 13.75 8.125 13.75Z" fill="#6B6B76"/>
</svg>
