<svg width="19" height="20" viewBox="0 0 19 20" fill="none" xmlns="http://www.w3.org/2000/svg">
<path d="M18.7946 6.52344C18.8988 6.88802 18.8207 7.20052 18.5603 7.46094L16.8415 9.02344C16.8936 9.33594 16.9196 9.66146 16.9196 10C16.9196 10.3385 16.8936 10.6641 16.8415 10.9766L18.5603 12.5391C18.8207 12.7995 18.8988 13.112 18.7946 13.4766C18.6124 13.9453 18.404 14.401 18.1696 14.8438L17.9743 15.1562C17.7139 15.5729 17.4275 15.9766 17.115 16.3672C16.8545 16.6536 16.542 16.7448 16.1775 16.6406L13.99 15.9375C13.4691 16.3542 12.8962 16.6797 12.2712 16.9141L11.8025 19.1797C11.6983 19.5443 11.4509 19.7656 11.0603 19.8438C10.5394 19.9479 9.99256 20 9.41964 20C8.84673 20 8.28683 19.9479 7.73996 19.8438C7.37537 19.7656 7.141 19.5443 7.03683 19.1797L6.56808 16.9141C5.94308 16.6797 5.37016 16.3542 4.84933 15.9375L2.66183 16.6406C2.29725 16.7448 1.98475 16.6536 1.72433 16.3672C1.38579 15.9766 1.09933 15.5729 0.864955 15.1562L0.669643 14.8438C0.435268 14.401 0.226935 13.9583 0.0446429 13.5156C-0.0595238 13.125 0.0186012 12.7995 0.279018 12.5391L1.99777 11.0156C1.94568 10.6771 1.91964 10.3385 1.91964 10C1.91964 9.66146 1.94568 9.33594 1.99777 9.02344L0.279018 7.46094C0.0186012 7.20052 -0.0595238 6.88802 0.0446429 6.52344C0.226935 6.05469 0.435268 5.59896 0.669643 5.15625L0.864955 4.84375C1.09933 4.42708 1.38579 4.02344 1.72433 3.63281C1.98475 3.34635 2.29725 3.25521 2.66183 3.35938L4.84933 4.0625C5.37016 3.64583 5.94308 3.30729 6.56808 3.04688L7.03683 0.820312C7.141 0.455729 7.38839 0.234375 7.77902 0.15625C8.29985 0.0520833 8.84673 0 9.41964 0C9.99256 0 10.5525 0.0520833 11.0993 0.15625C11.4639 0.234375 11.6983 0.455729 11.8025 0.820312L12.2712 3.04688C12.8962 3.30729 13.4691 3.64583 13.99 4.0625L16.1775 3.35938C16.542 3.25521 16.8545 3.34635 17.115 3.63281C17.4535 4.02344 17.753 4.42708 18.0134 4.84375L18.1696 5.15625C18.404 5.59896 18.6124 6.05469 18.7946 6.52344ZM9.41964 13.125C10.5915 13.099 11.49 12.5781 12.115 11.5625C12.6879 10.5208 12.6879 9.47917 12.115 8.4375C11.49 7.42188 10.5915 6.90104 9.41964 6.875C8.24777 6.90104 7.34933 7.42188 6.72433 8.4375C6.15141 9.47917 6.15141 10.5208 6.72433 11.5625C7.34933 12.5781 8.24777 13.099 9.41964 13.125Z" fill="#6B6B76"/>
</svg>
